<svg width="357" height="312" viewBox="0 0 357 312" fill="none" xmlns="http://www.w3.org/2000/svg">
<g filter="url(#filter0_d_869_5084)">
<path d="M331.155 79.8419C263.763 14.6193 188.302 42.6245 158.996 64.7799L149.223 176.486C142.669 251.395 281.662 312.553 321.382 191.548L331.155 79.8419Z" fill="#CFAC82"/>
<path d="M189.324 111.672C190.467 98.6072 202.001 88.7547 215.066 89.8977V89.8977C228.13 91.0407 237.778 102.746 236.635 115.811V115.811C236.014 122.909 229.748 128.261 222.65 127.64L201.042 125.75C193.945 125.129 188.703 118.769 189.324 111.672V111.672Z" fill="#6C5437"/>
<path d="M249.778 116.961C250.921 103.896 262.455 94.0438 275.52 95.1868V95.1868C288.584 96.3298 298.232 108.035 297.089 121.1V121.1C296.468 128.198 290.202 133.55 283.104 132.929L261.497 131.039C254.399 130.418 249.157 124.059 249.778 116.961V116.961Z" fill="#6C5437"/>
<path d="M203.046 197.016C202.645 201.6 206.036 205.642 210.62 206.043L259.73 210.339C264.314 210.74 268.355 207.349 268.756 202.765V202.765C270.26 185.575 257.544 170.42 240.354 168.916L236.895 168.614C219.705 167.11 204.55 179.826 203.046 197.016V197.016Z" fill="#6C5437"/>
<mask id="mask0_869_5084" style="mask-type:alpha" maskUnits="userSpaceOnUse" x="148" y="39" width="184" height="222">
<path d="M331.156 79.8419C263.764 14.6193 188.303 42.6245 158.997 64.7799L149.224 176.486C142.67 251.395 281.663 312.553 321.383 191.548L331.156 79.8419Z" fill="#CFAC82"/>
<path d="M189.324 111.672C190.467 98.6072 202.001 88.7547 215.066 89.8977V89.8977C228.13 91.0407 237.778 102.746 236.635 115.811V115.811C236.014 122.909 229.748 128.261 222.65 127.64L201.042 125.75C193.945 125.129 188.703 118.769 189.324 111.672V111.672Z" fill="#6C5437"/>
<path d="M249.778 116.961C250.921 103.896 262.455 94.0438 275.52 95.1868V95.1868C288.584 96.3298 298.232 108.035 297.089 121.1V121.1C296.468 128.198 290.202 133.55 283.104 132.929L261.497 131.039C254.399 130.418 249.157 124.059 249.778 116.961V116.961Z" fill="#6C5437"/>
<path d="M203.046 197.016C202.645 201.6 206.036 205.642 210.62 206.043L259.73 210.339C264.314 210.74 268.355 207.349 268.756 202.765V202.765C270.26 185.575 257.544 170.42 240.354 168.916L236.895 168.614C219.705 167.11 204.55 179.826 203.046 197.016V197.016Z" fill="#6C5437"/>
</mask>
<g mask="url(#mask0_869_5084)">
<rect x="257.842" y="24.7793" width="121.368" height="263.843" transform="rotate(5 257.842 24.7793)" fill="#6C5437" fill-opacity="0.5"/>
</g>
</g>
<g filter="url(#filter1_d_869_5084)">
<path d="M199.342 33.2439C126.522 -25.8569 53.7891 8.6186 26.5254 33.2439V145.377C26.5254 220.572 170.32 269.383 199.342 145.377V33.2439Z" fill="#CFAC82"/>
<path d="M59.5059 75.6495C59.5059 62.535 70.1372 51.7148 83.2517 51.7148V51.7148C96.3662 51.7148 106.998 62.535 106.998 75.6495V75.6495C106.998 82.7744 101.222 88.6528 94.0968 88.6528H72.4066C65.2817 88.6528 59.5059 82.7744 59.5059 75.6495V75.6495Z" fill="#6C5437"/>
<path d="M120.19 75.6495C120.19 62.535 130.822 51.7148 143.936 51.7148V51.7148C157.051 51.7148 167.682 62.535 167.682 75.6495V75.6495C167.682 82.7744 161.906 88.6528 154.781 88.6528H133.091C125.966 88.6528 120.19 82.7744 120.19 75.6495V75.6495Z" fill="#6C5437"/>
<path d="M80.6133 136.558C80.6133 131.957 84.3436 128.227 88.9452 128.227H138.242C142.844 128.227 146.574 131.957 146.574 136.558V136.558C146.574 153.814 132.585 167.803 115.329 167.803H111.858C94.6019 167.803 80.6133 153.814 80.6133 136.558V136.558Z" fill="#6C5437"/>
<mask id="mask1_869_5084" style="mask-type:alpha" maskUnits="userSpaceOnUse" x="26" y="0" width="174" height="222">
<path d="M199.342 33.2439C126.522 -25.8569 53.7891 8.6186 26.5254 33.2439V145.377C26.5254 220.572 170.32 269.383 199.342 145.377V33.2439Z" fill="#CFAC82"/>
<path d="M59.5059 75.6495C59.5059 62.535 70.1372 51.7148 83.2517 51.7148V51.7148C96.3662 51.7148 106.998 62.535 106.998 75.6495V75.6495C106.998 82.7744 101.222 88.6528 94.0968 88.6528H72.4066C65.2817 88.6528 59.5059 82.7744 59.5059 75.6495V75.6495Z" fill="#6C5437"/>
<path d="M120.19 75.6495C120.19 62.535 130.822 51.7148 143.936 51.7148V51.7148C157.051 51.7148 167.682 62.535 167.682 75.6495V75.6495C167.682 82.7744 161.906 88.6528 154.781 88.6528H133.091C125.966 88.6528 120.19 82.7744 120.19 75.6495V75.6495Z" fill="#6C5437"/>
<path d="M80.6133 136.558C80.6133 131.957 84.3436 128.227 88.9452 128.227H138.242C142.844 128.227 146.574 131.957 146.574 136.558V136.558C146.574 153.814 132.585 167.803 115.329 167.803H111.858C94.6019 167.803 80.6133 153.814 80.6133 136.558V136.558Z" fill="#6C5437"/>
</mask>
<g mask="url(#mask1_869_5084)">
<rect x="-7.77344" y="-25.7754" width="121.368" height="274.396" fill="#6C5437" fill-opacity="0.5"/>
</g>
</g>
<defs>
<filter id="filter0_d_869_5084" x="123.153" y="39.3691" width="233.848" height="272.446" filterUnits="userSpaceOnUse" color-interpolation-filters="sRGB">
<feFlood flood-opacity="0" result="BackgroundImageFix"/>
<feColorMatrix in="SourceAlpha" type="matrix" values="0 0 0 0 0 0 0 0 0 0 0 0 0 0 0 0 0 0 127 0" result="hardAlpha"/>
<feOffset dy="25.8449"/>
<feGaussianBlur stdDeviation="12.9224"/>
<feComposite in2="hardAlpha" operator="out"/>
<feColorMatrix type="matrix" values="0 0 0 0 0 0 0 0 0 0 0 0 0 0 0 0 0 0 0.25 0"/>
<feBlend mode="normal" in2="BackgroundImageFix" result="effect1_dropShadow_869_5084"/>
<feBlend mode="normal" in="SourceGraphic" in2="effect1_dropShadow_869_5084" result="shape"/>
</filter>
<filter id="filter1_d_869_5084" x="0.680525" y="0.611328" width="224.507" height="272.246" filterUnits="userSpaceOnUse" color-interpolation-filters="sRGB">
<feFlood flood-opacity="0" result="BackgroundImageFix"/>
<feColorMatrix in="SourceAlpha" type="matrix" values="0 0 0 0 0 0 0 0 0 0 0 0 0 0 0 0 0 0 127 0" result="hardAlpha"/>
<feOffset dy="25.8449"/>
<feGaussianBlur stdDeviation="12.9224"/>
<feComposite in2="hardAlpha" operator="out"/>
<feColorMatrix type="matrix" values="0 0 0 0 0 0 0 0 0 0 0 0 0 0 0 0 0 0 0.25 0"/>
<feBlend mode="normal" in2="BackgroundImageFix" result="effect1_dropShadow_869_5084"/>
<feBlend mode="normal" in="SourceGraphic" in2="effect1_dropShadow_869_5084" result="shape"/>
</filter>
</defs>
</svg>
