<svg width="234" height="272" viewBox="0 0 234 272" fill="none" xmlns="http://www.w3.org/2000/svg">
<path d="M0.486328 40.3848H225.667L205.937 266.852H20.2164L0.486328 40.3848Z" fill="white" fill-opacity="0.7"/>
<path d="M21.9326 121.078H205.508L193.928 232.596H32.6555L21.9326 121.078Z" fill="#A92522"/>
<path d="M49.8125 145.898L108.574 152.761L98.2799 209.378L41.6631 201.657L49.8125 145.898Z" fill="#C34B3F" fill-opacity="0.67"/>
<path d="M114.579 175.065L164.333 145.898L192.642 196.939L143.745 225.677L114.579 175.065Z" fill="#C34B3F" fill-opacity="0.67"/>
<path d="M187.713 52.1837C193.662 59.0278 198.205 66.9767 201.083 75.5765C203.96 84.1764 205.116 93.2588 204.483 102.305C203.851 111.352 201.442 120.185 197.396 128.3C193.35 136.416 187.744 143.655 180.9 149.605C174.056 155.554 166.107 160.098 157.508 162.975C148.908 165.852 139.825 167.008 130.779 166.375C121.733 165.743 112.899 163.334 104.784 159.288C96.6679 155.242 89.4287 149.637 83.4792 142.793L135.596 97.4881L187.713 52.1837Z" fill="#E27D3F"/>
<path d="M180.323 58.3559C185.545 64.3378 189.537 71.2894 192.071 78.814C194.606 86.3386 195.634 94.2888 195.096 102.211C194.558 110.132 192.465 117.871 188.937 124.984C185.409 132.097 180.514 138.445 174.532 143.666C168.55 148.888 161.599 152.88 154.074 155.414C146.549 157.949 138.599 158.977 130.677 158.439C122.756 157.901 115.017 155.809 107.904 152.28C100.791 148.752 94.4428 143.857 89.2215 137.875L134.772 98.1155L180.323 58.3559Z" fill="#F1D6B7"/>
<path d="M130.019 145.528C115.95 145.528 104.713 136.092 100.853 131.374L133.021 104.781L130.019 145.528Z" fill="#E27D3F"/>
<path d="M174.509 70.928C184.193 81.1329 185.084 95.7797 184.319 101.828L142.886 96.7985L174.509 70.928Z" fill="#E27D3F"/>
<path d="M167.596 134.25C179.395 126.588 183.68 112.553 184.348 106.494L142.885 101.712L167.596 134.25Z" fill="#E27D3F"/>
<path d="M132.961 145.309C146.747 148.114 159.64 141.108 164.363 137.254L138.142 104.782L132.961 145.309Z" fill="#E27D3F"/>
<path d="M102.997 121.023H198.645L194.356 196.941L41.2334 147.187L102.997 121.023Z" fill="#A92522" fill-opacity="0.41"/>
<path d="M109.003 169.487L124.015 211.521L116.723 232.967L37.374 145.039L109.003 169.487Z" fill="#A92522" fill-opacity="0.41"/>
<mask id="mask0_869_5263" style="mask-type:alpha" maskUnits="userSpaceOnUse" x="0" y="45" width="226" height="227">
<path d="M0.486328 45.5312H225.667L205.937 271.999H20.2164L0.486328 45.5312Z" fill="#F7F5F4" fill-opacity="0.67"/>
</mask>
<g mask="url(#mask0_869_5263)">
<path d="M16.7842 232.963V184.066M16.7842 232.963L36.9432 195.647M16.7842 232.963L44.2348 219.237" stroke="white" stroke-width="4.20147" stroke-linecap="round" stroke-linejoin="round"/>
<path d="M111.574 231.247V169.055M111.574 231.247L137.309 184.496M111.574 231.247L146.317 215.378M111.574 231.247L85.4105 184.496M111.574 231.247L76.4033 215.378" stroke="white" stroke-width="4.20147" stroke-linecap="round" stroke-linejoin="round"/>
<path d="M208.939 232.107V185.355M208.939 232.107L190.067 196.507M208.939 232.107L183.204 219.24" stroke="white" stroke-width="4.20147" stroke-linecap="round" stroke-linejoin="round"/>
<path d="M206.794 242.832H16.7842" stroke="white" stroke-width="4.20147" stroke-linecap="round" stroke-linejoin="round"/>
<path d="M16.7842 234.251L210.654 232.535" stroke="white" stroke-width="4.20147" stroke-linecap="round" stroke-linejoin="round"/>
<path d="M7.34863 125.738L218.375 126.169" stroke="white" stroke-width="4.20147" stroke-linecap="round" stroke-linejoin="round"/>
<path d="M220.09 116.731L6.49023 116.301" stroke="white" stroke-width="4.20147" stroke-linecap="round" stroke-linejoin="round"/>
<path d="M1.34375 56.252H223.093" stroke="white" stroke-width="4.20147" stroke-linecap="round" stroke-linejoin="round"/>
<path d="M222.235 64.4023H1.77246" stroke="white" stroke-width="4.20147" stroke-linecap="round" stroke-linejoin="round"/>
<path d="M2.20142 100.001L38.2303 64.8301L88.4134 116.3L138.596 64.8301L188.78 116.3L225.237 78.9843L213.657 64.8301L162.616 116.3L112.862 64.8301L62.2496 116.3L12.4954 64.8301L0.056845 77.2686L38.2303 116.3L88.4134 64.8301L138.596 116.3L188.78 64.8301L226.953 103.432L213.657 116.3L163.902 64.8301L112.862 116.3L62.2496 64.8301L12.4954 116.3L0.914676 104.719L0.056845 103.861L-0.37207 103.432L2.20142 100.001Z" stroke="white" stroke-width="4.20147" stroke-linecap="round" stroke-linejoin="round"/>
</g>
</svg>
