<svg width="225" height="329" viewBox="0 0 225 329" fill="none" xmlns="http://www.w3.org/2000/svg">
<g filter="url(#filter0_d_869_5119)">
<path d="M50.9629 103.147C59.5132 86.0464 75.9012 85.8429 83.0265 87.8787C89.1343 91.5428 97.7856 86.3519 101.348 83.2984C107.813 77.7566 118.448 63.755 137.992 71.0838C157.535 78.4126 159.367 105.692 157.841 118.416L150.206 129.103L121.197 135.211L86.0794 136.738L47.9093 130.63C45.3645 128.594 42.4127 120.248 50.9629 103.147Z" fill="#EFC6D8" stroke="#EFC6D8" stroke-width="7.4781"/>
<path d="M44.6903 132.69C17.818 144.905 24.3325 173.406 30.9487 186.129H38.5825H53.8508L81.3339 187.655L131.719 186.129L177.524 172.387L183.632 151.012C195.846 132.69 171.417 106.733 154.622 111.314C139.354 118.948 116.451 124.038 102.71 125.056C92.0217 125.055 71.5625 120.476 44.6903 132.69Z" fill="#E4A0BE" stroke="#E4A0BE" stroke-width="7.4781"/>
<path d="M54.1181 162.692C21.1385 173.685 14.9293 200.863 15.9472 213.078V223.765L25.1081 231.399L43.4301 235.98H54.1179L80.0741 239.034L168.631 229.873C176.265 223.256 193.365 209.413 200.694 206.97C208.023 204.527 210.873 188.649 211.382 181.015C215.962 158.111 190.006 141.318 180.845 156.585C169.852 174.907 146.746 172.362 136.567 168.8C122.826 162.183 87.0977 151.699 54.1181 162.692Z" fill="#DC79A1" stroke="#DC79A1" stroke-width="7.4781"/>
<path d="M55.2483 219.397C55.4119 207.125 65.4071 197.262 77.6806 197.262H95.5533C103.813 197.262 110.509 203.958 110.509 212.218V311.774H54.0166L55.2483 219.397Z" fill="#C39A7D"/>
<path d="M165.769 219.397C165.606 207.125 155.61 197.262 143.337 197.262H125.464C117.204 197.262 110.508 203.958 110.508 212.218V311.774H167.001L165.769 219.397Z" fill="#A9856D"/>
<path d="M10.4957 228.257C5.70747 213.294 17.3857 198.17 33.0736 199.018L40.2514 199.406C50.2159 199.945 58.6268 207.001 60.8902 216.72L83.0262 311.774H53.5971C43.8412 311.774 35.2036 305.469 32.2302 296.177L10.4957 228.257Z" fill="#E7BFA0"/>
<path d="M213.046 229.914C217.976 214.51 205.48 199.109 189.39 200.76L180.227 201.699C170.528 202.694 162.582 209.84 160.566 219.379L141.046 311.774H170.475C180.231 311.774 188.869 305.469 191.842 296.177L213.046 229.914Z" fill="#CEA585"/>
<path d="M57.0691 34.6181C50.9618 20.5017 45.3634 7.64403 41.8008 2.55458C49.435 1.02782 75.3911 4.08141 84.5521 13.2424C94.9884 23.6786 95.24 36.145 89.1326 43.7791C84.5521 51.4134 62.5991 47.4 57.0691 34.6181Z" fill="#78B357" stroke="#79B356" stroke-width="2.99124" stroke-linecap="round"/>
<path d="M57.0691 34.6181C50.9618 20.5017 45.3634 7.64403 41.8008 2.55458C49.435 1.02782 75.3911 4.08141 84.5521 13.2424C94.9884 23.6786 95.24 36.145 89.1326 43.7791C84.5521 51.4134 62.5991 47.4 57.0691 34.6181Z" fill="#78B357" stroke="#79B356" stroke-width="2.99124" stroke-linecap="round"/>
<path d="M57.0696 34.6175C50.9623 20.5011 43.837 7.26722 40.2744 2.17778C47.9086 0.651022 75.3916 4.08082 84.5526 13.2418C94.9888 23.6781 95.2405 36.1445 89.1331 43.7785C84.5526 51.4128 62.5996 47.3994 57.0696 34.6175Z" fill="#78B357" stroke="#79B356" stroke-width="2.99124" stroke-linecap="round"/>
<circle cx="104.402" cy="76.9903" r="29.0099" fill="#CB447F"/>
<path d="M96.7686 70.8813C98.2954 72.9171 103.487 74.8511 112.037 66.3008" stroke="#5B8742" stroke-width="2.99124" stroke-linecap="round"/>
<path d="M104.401 70.8872C100.33 56.6368 63.4823 9.50849 40.2744 2.17969" stroke="#5B8742" stroke-width="2.99124" stroke-linecap="round"/>
<circle r="4.5805" transform="matrix(-1 0 0 1 90.6607 67.4789)" fill="#E7E7E7"/>
</g>
<defs>
<filter id="filter0_d_869_5119" x="1.04288" y="0.332031" width="222.984" height="328.174" filterUnits="userSpaceOnUse" color-interpolation-filters="sRGB">
<feFlood flood-opacity="0" result="BackgroundImageFix"/>
<feColorMatrix in="SourceAlpha" type="matrix" values="0 0 0 0 0 0 0 0 0 0 0 0 0 0 0 0 0 0 127 0" result="hardAlpha"/>
<feOffset dy="8.3663"/>
<feGaussianBlur stdDeviation="4.18315"/>
<feComposite in2="hardAlpha" operator="out"/>
<feColorMatrix type="matrix" values="0 0 0 0 0 0 0 0 0 0 0 0 0 0 0 0 0 0 0.25 0"/>
<feBlend mode="normal" in2="BackgroundImageFix" result="effect1_dropShadow_869_5119"/>
<feBlend mode="normal" in="SourceGraphic" in2="effect1_dropShadow_869_5119" result="shape"/>
</filter>
</defs>
</svg>
