<svg width="30" height="30" viewBox="0 0 30 30" fill="none" xmlns="http://www.w3.org/2000/svg">
<circle cx="15" cy="15" r="15" fill="#EA592B"/>
<rect y="14.9492" width="13.8538" height="15.0498" fill="#EA592B"/>
<circle cx="15" cy="15" r="15" fill="#EA592B"/>
<rect y="14.9492" width="13.8538" height="15.0498" fill="#EA592B"/>
<path d="M16.5002 10.9721C16.9697 9.78351 19.3053 9.81719 18.9753 10.3121" stroke="#20213E" stroke-width="2"/>
<path d="M23.6542 15.1257C23.6542 19.9262 19.7626 23.8178 14.9621 23.8178C10.1616 23.8178 6.27002 19.9262 6.27002 15.1257C6.27002 10.3252 10.1616 6.43359 14.9621 6.43359C19.7626 6.43359 23.6542 10.3252 23.6542 15.1257Z" fill="#FFEEEE"/>
<ellipse cx="17.7378" cy="13.0358" rx="1.07251" ry="1.48502" fill="#20213E"/>
<mask id="path-8-inside-1_873_5525" fill="white">
<path d="M14.5689 15.5564C14.5624 15.3377 14.643 15.1254 14.793 14.9661C14.9431 14.8069 15.1503 14.7138 15.369 14.7073C15.5877 14.7008 15.8 14.7814 15.9593 14.9315C16.1185 15.0815 16.2116 15.2887 16.2181 15.5074L15.9562 15.5152C15.9518 15.3659 15.8882 15.2246 15.7796 15.1222C15.6709 15.0198 15.526 14.9648 15.3768 14.9692C15.2275 14.9736 15.0862 15.0372 14.9838 15.1458C14.8814 15.2545 14.8263 15.3994 14.8308 15.5487L14.5689 15.5564Z"/>
</mask>
<path d="M14.5689 15.5564C14.5624 15.3377 14.643 15.1254 14.793 14.9661C14.9431 14.8069 15.1503 14.7138 15.369 14.7073C15.5877 14.7008 15.8 14.7814 15.9593 14.9315C16.1185 15.0815 16.2116 15.2887 16.2181 15.5074L15.9562 15.5152C15.9518 15.3659 15.8882 15.2246 15.7796 15.1222C15.6709 15.0198 15.526 14.9648 15.3768 14.9692C15.2275 14.9736 15.0862 15.0372 14.9838 15.1458C14.8814 15.2545 14.8263 15.3994 14.8308 15.5487L14.5689 15.5564Z" fill="#B963A6" stroke="#20213E" stroke-width="6" mask="url(#path-8-inside-1_873_5525)"/>
<circle cx="12.1277" cy="13.4475" r="1.07251" fill="#20213E"/>
<path d="M12.0452 17.3242H18.3152" stroke="#20213E" stroke-width="3"/>
<path d="M13.6058 11.7424C13.6058 11.7424 10.3952 9.90023 10.6497 10.6982" stroke="#20213E" stroke-width="2"/>
</svg>
