<svg width="38" height="38" viewBox="0 0 38 38" fill="none" xmlns="http://www.w3.org/2000/svg">
<g filter="url(#filter0_d_873_5477)">
<circle cx="19" cy="15" r="15" fill="#F6B052"/>
<rect x="4" y="14.9492" width="13.8538" height="15.0498" fill="#F6B052"/>
<circle cx="19" cy="15" r="15" fill="#F6B052"/>
<rect x="4" y="14.9492" width="13.8538" height="15.0498" fill="#F6B052"/>
</g>
<path d="M27.6542 14.6296C27.6542 19.4301 23.7626 23.3217 18.9621 23.3217C14.1616 23.3217 10.27 19.4301 10.27 14.6296C10.27 9.82908 14.1616 5.9375 18.9621 5.9375C23.7626 5.9375 27.6542 9.82908 27.6542 14.6296Z" fill="#FFEEEE"/>
<circle cx="19.0152" cy="14.5168" r="7.75509" fill="#FEFEFE"/>
<circle cx="22.1502" cy="12.8639" r="1.48502" fill="black"/>
<circle cx="21.5727" cy="12.6175" r="0.742508" fill="white"/>
<path d="M17.6951 12.8639C17.6951 13.6841 17.0303 14.3489 16.2101 14.3489C15.39 14.3489 14.7251 13.6841 14.7251 12.8639C14.7251 12.0438 15.39 11.3789 16.2101 11.3789C17.0303 11.3789 17.6951 12.0438 17.6951 12.8639Z" fill="black"/>
<circle cx="15.7977" cy="12.4495" r="0.742508" fill="white"/>
<circle cx="16.5401" cy="13.5253" r="0.330004" fill="white"/>
<circle cx="22.4802" cy="13.5253" r="0.330004" fill="white"/>
<path d="M15.7451 17.1523C16.0651 17.7765 17.2692 18.8815 19.5251 18.308" stroke="black" stroke-width="2" stroke-linecap="round"/>
<circle cx="19.1802" cy="14.6802" r="2.14502" fill="#853F3F"/>
<circle cx="20.3352" cy="14.1864" r="0.495005" fill="#B56060"/>
<defs>
<filter id="filter0_d_873_5477" x="0" y="0" width="38" height="38" filterUnits="userSpaceOnUse" color-interpolation-filters="sRGB">
<feFlood flood-opacity="0" result="BackgroundImageFix"/>
<feColorMatrix in="SourceAlpha" type="matrix" values="0 0 0 0 0 0 0 0 0 0 0 0 0 0 0 0 0 0 127 0" result="hardAlpha"/>
<feOffset dy="4"/>
<feGaussianBlur stdDeviation="2"/>
<feComposite in2="hardAlpha" operator="out"/>
<feColorMatrix type="matrix" values="0 0 0 0 0 0 0 0 0 0 0 0 0 0 0 0 0 0 0.25 0"/>
<feBlend mode="normal" in2="BackgroundImageFix" result="effect1_dropShadow_873_5477"/>
<feBlend mode="normal" in="SourceGraphic" in2="effect1_dropShadow_873_5477" result="shape"/>
</filter>
</defs>
</svg>
